<svg width="512" height="512" viewBox="0 0 100 100" xmlns="http://www.w3.org/2000/svg">
  <rect width="100" height="100" rx="20" fill="#FAF8F5"/>
  <g transform="translate(5, 5) scale(0.9)">
    <path d="M20 35h60v40H20V35z" fill="#FF5252"/>
    <path d="M20 35v20h25V35H20z" fill="#FF5252"/>
    <rect x="15" y="70" width="70" height="15" rx="2" fill="#FFD740"/>
    <rect x="20" y="85" width="60" height="5" fill="#FF5252"/>
    <rect x="22" y="55" width="4" height="10" fill="#3F51B5"/>
    <rect x="23" y="65" width="2" height="5" fill="#3F51B5"/>
    <rect x="55" y="20" width="10" height="15" fill="#4DB6AC"/>
    <rect x="70" y="20" width="10" height="15" fill="#BA68C8"/>
    <path d="M60 20v15M75 20v15" stroke="#FBC02D" stroke-width="2"/>
    <circle cx="70" cy="45" r="5" fill="#7E57C2"/>
    <circle cx="70" cy="60" r="5" fill="#FBC02D"/>
    <rect x="20" y="40" width="10" height="5" fill="#4DB6AC"/>
  </g>
</svg>
