<svg width="512" height="512" viewBox="0 0 100 100" xmlns="http://www.w3.org/2000/svg">
  <rect width="100" height="100" rx="20" fill="#ca8a04"/>
  <g transform="scale(3.5) translate(5, 5)" stroke="#3c2a01" stroke-width="0.8" fill="none" stroke-linecap="round" stroke-linejoin="round">
    <path d="M22 13h-4.209l-1.87-3.738A2 2 0 0 0 14.06 8H7.94a2 2 0 0 0-1.861 1.262L4.21 13H2"/>
    <path d="M4 13h16v6a2 2 0 0 1-2 2H6a2 2 0 0 1-2-2v-6z"/>
    <path d="M10 17h4"/>
    <path d="M12 8V6.5A1.5 1.5 0 0 1 13.5 5h1A1.5 1.5 0 0 1 16 6.5V8"/>
    <path d="M12 8h4"/>
    <path d="M7 8V6"/>
    <circle cx="18" cy="6" r="1"/>
  </g>
</svg>
